{
  "accessors": [
    {
      "bufferView": 0,
      "componentType": 5126,
      "count": 660,
      "max": [
        0.9971464276313782,
        1.0,
        0.997146487236023
      ],
      "min": [
        -0.9971466064453125,
        -1.0000001192092896,
        -0.9971464276313782
      ],
      "type": "VEC3"
    },
    {
      "bufferView": 1,
      "componentType": 5126,
      "count": 660,
      "max": [
        0.9970544576644897,
        0.9970691204071045,
        0.9970544576644897
      ],
      "min": [
        -0.9970544576644897,
        -0.9970691204071045,
        -0.9970544576644897
      ],
      "type": "VEC3"
    },
    {
      "bufferView": 2,
      "componentType": 5126,
      "count": 660,
      "max": [
        0.9970621466636658,
        0.9970545172691345,
        0.9952235817909241,
        1.0
      ],
      "min": [
        -0.9970621466636658,
        0.07627863436937332,
        -0.9952235817909241,
        -1.0
      ],
      "type": "VEC4"
    },
    {
      "bufferView": 3,
      "componentType": 5126,
      "count": 660,
      "max": [
        1.0,
        1.0
      ],
      "min": [
        0.0,
        0.0
      ],
      "type": "VEC2"
    },
    {
      "bufferView": 4,
      "componentType": 5125,
      "count": 3648,
      "max": [
        659
      ],
      "min": [
        0
      ],
      "type": "SCALAR"
    }
  ],
  "asset": {
    "version": "2.0"
  },
  "bufferViews": [
    {
      "buffer": 0,
      "byteLength": 7920,
      "target": 34962
    },
    {
      "buffer": 0,
      "byteLength": 7920,
      "byteOffset": 7920,
      "target": 34962
    },
    {
      "buffer": 0,
      "byteLength": 10560,
      "byteOffset": 15840,
      "target": 34962
    },
    {
      "buffer": 0,
      "byteLength": 5280,
      "byteOffset": 26400,
      "target": 34962
    },
    {
      "buffer": 0,
      "byteLength": 14592,
      "byteOffset": 31680,
      "target": 34963
    }
  ],
  "buffers": [
    {
      "byteLength": 46272,
      "uri": "ProbeSphere.bin"
    }
  ],
  "materials": [
    {
      "name": "Material.002"
    }
  ],
  "meshes": [
    {
      "primitives": [
        {
          "attributes": {
            "NORMAL": 1,
            "POSITION": 0,
            "TANGENT": 2,
            "TEXCOORD_0": 3
          },
          "indices": 4,
          "material": 0,
          "mode": 4
        }
      ]
    }
  ],
  "nodes": [
    {
      "mesh": 0,
      "name": "SurfSphere",
      "rotation": [
        0.0,
        0.0,
        0.0,
        1.0
      ],
      "scale": [
        1.0,
        1.0,
        1.0
      ],
      "translation": [
        0.0,
        0.0,
        0.0
      ]
    }
  ],
  "samplers": [
    {
      "wrapS": 10497,
      "wrapT": 10497
    }
  ],
  "scenes": [
    {
      "nodes": [
        0
      ]
    }
  ]
}
